<svg xmlns="http://www.w3.org/2000/svg" viewBox="0 0 1024 1024">
<path d="M 650,722 L 649,723 L 646,723 L 643,726 L 643,727 L 642,728 L 642,752 L 644,754 L 644,755 L 645,755 L 646,756 L 647,756 L 648,757 L 873,757 L 874,756 L 875,756 L 876,755 L 877,755 L 878,754 L 878,753 L 879,752 L 879,728 L 878,727 L 878,726 L 875,723 L 651,723 Z" fill="black"/>
<path d="M 555,404 L 554,405 L 553,405 L 552,406 L 551,406 L 548,409 L 547,409 L 547,410 L 544,413 L 544,414 L 543,415 L 543,417 L 542,418 L 542,429 L 543,430 L 543,431 L 544,432 L 544,433 L 545,434 L 545,435 L 567,457 L 567,458 L 568,458 L 569,459 L 569,460 L 617,508 L 602,523 L 602,524 L 552,574 L 552,575 L 544,583 L 544,584 L 543,585 L 543,586 L 542,587 L 542,590 L 541,591 L 541,595 L 542,596 L 542,599 L 543,600 L 543,602 L 544,603 L 544,604 L 550,610 L 551,610 L 552,611 L 553,611 L 554,612 L 555,612 L 556,613 L 567,613 L 568,612 L 570,612 L 572,610 L 573,610 L 615,568 L 615,567 L 660,522 L 660,521 L 663,518 L 663,517 L 664,516 L 664,514 L 665,513 L 665,503 L 664,502 L 664,500 L 663,499 L 663,498 L 588,423 L 588,422 L 583,417 L 582,417 L 581,416 L 581,415 L 577,411 L 576,411 L 571,406 L 570,406 L 569,405 L 568,405 L 567,404 Z" fill="black"/>
<path d="M 426,404 L 425,405 L 423,405 L 422,406 L 421,406 L 414,413 L 414,414 L 413,415 L 413,416 L 412,417 L 412,420 L 411,421 L 411,426 L 412,427 L 412,429 L 413,430 L 413,432 L 414,433 L 414,434 L 435,455 L 435,456 L 487,508 L 476,519 L 476,520 L 421,575 L 421,576 L 414,583 L 414,584 L 413,585 L 413,586 L 412,587 L 412,590 L 411,591 L 411,596 L 412,597 L 412,600 L 413,601 L 413,602 L 414,603 L 414,604 L 420,610 L 421,610 L 422,611 L 423,611 L 424,612 L 425,612 L 426,613 L 437,613 L 438,612 L 440,612 L 442,610 L 443,610 L 465,588 L 465,587 L 501,551 L 501,550 L 531,520 L 531,519 L 532,518 L 532,517 L 533,516 L 533,515 L 534,514 L 534,503 L 533,502 L 533,500 L 532,499 L 532,498 L 520,486 L 520,485 L 519,485 L 518,484 L 518,483 L 442,407 L 441,407 L 439,405 L 437,405 L 436,404 Z" fill="black"/>
<path d="M 259,362 L 258,363 L 251,363 L 250,364 L 246,364 L 245,365 L 242,365 L 241,366 L 238,366 L 237,367 L 235,367 L 234,368 L 232,368 L 231,369 L 229,369 L 228,370 L 227,370 L 226,371 L 225,371 L 224,372 L 223,372 L 222,373 L 221,373 L 220,374 L 219,374 L 218,375 L 217,375 L 216,376 L 215,376 L 213,378 L 212,378 L 211,379 L 210,379 L 208,381 L 207,381 L 204,384 L 203,384 L 197,390 L 196,390 L 190,396 L 190,397 L 185,402 L 185,403 L 182,406 L 182,407 L 180,409 L 180,410 L 178,412 L 178,413 L 176,415 L 176,416 L 175,417 L 175,418 L 174,419 L 174,420 L 172,422 L 172,424 L 171,425 L 171,426 L 170,427 L 170,428 L 169,429 L 169,430 L 168,431 L 168,433 L 167,434 L 167,436 L 166,437 L 166,438 L 165,439 L 165,442 L 164,443 L 164,446 L 163,447 L 163,450 L 162,451 L 162,455 L 161,456 L 161,464 L 160,465 L 160,527 L 161,528 L 161,534 L 162,535 L 162,539 L 163,540 L 163,544 L 164,545 L 164,547 L 165,548 L 165,550 L 166,551 L 166,554 L 167,555 L 167,556 L 168,557 L 168,559 L 169,560 L 169,561 L 170,562 L 170,564 L 171,565 L 171,566 L 172,567 L 172,568 L 173,569 L 173,570 L 175,572 L 175,573 L 176,574 L 176,575 L 178,577 L 178,578 L 179,579 L 179,580 L 182,583 L 182,584 L 185,587 L 185,588 L 193,596 L 193,597 L 194,598 L 195,598 L 201,604 L 202,604 L 205,607 L 206,607 L 209,610 L 210,610 L 211,611 L 212,611 L 214,613 L 215,613 L 216,614 L 217,614 L 218,615 L 219,615 L 220,616 L 221,616 L 222,617 L 223,617 L 224,618 L 225,618 L 226,619 L 228,619 L 229,620 L 230,620 L 231,621 L 233,621 L 234,622 L 236,622 L 237,623 L 239,623 L 240,624 L 243,624 L 244,625 L 249,625 L 250,626 L 255,626 L 256,627 L 283,627 L 284,626 L 289,626 L 290,625 L 294,625 L 295,624 L 298,624 L 299,623 L 302,623 L 303,622 L 305,622 L 306,621 L 307,621 L 308,620 L 310,620 L 311,619 L 312,619 L 313,618 L 315,618 L 316,617 L 317,617 L 318,616 L 319,616 L 321,614 L 322,614 L 323,613 L 324,613 L 326,611 L 327,611 L 328,610 L 329,610 L 332,607 L 333,607 L 337,603 L 338,603 L 345,596 L 345,595 L 348,592 L 348,591 L 350,589 L 350,588 L 351,587 L 351,585 L 352,584 L 352,581 L 353,580 L 353,578 L 352,577 L 352,572 L 351,571 L 351,570 L 350,569 L 350,568 L 349,567 L 349,566 L 343,560 L 342,560 L 341,559 L 339,559 L 338,558 L 336,558 L 335,557 L 332,557 L 331,558 L 328,558 L 327,559 L 326,559 L 323,562 L 322,562 L 308,576 L 307,576 L 305,578 L 304,578 L 303,579 L 302,579 L 301,580 L 300,580 L 299,581 L 298,581 L 297,582 L 296,582 L 295,583 L 294,583 L 293,584 L 291,584 L 290,585 L 287,585 L 286,586 L 281,586 L 280,587 L 260,587 L 259,586 L 255,586 L 254,585 L 251,585 L 250,584 L 248,584 L 247,583 L 245,583 L 244,582 L 242,582 L 241,581 L 240,581 L 239,580 L 238,580 L 236,578 L 235,578 L 234,577 L 233,577 L 230,574 L 229,574 L 225,570 L 224,570 L 219,565 L 219,564 L 215,560 L 215,559 L 213,557 L 213,556 L 211,554 L 211,553 L 210,552 L 210,551 L 209,550 L 209,549 L 208,548 L 208,547 L 207,546 L 207,545 L 206,544 L 206,542 L 205,541 L 205,539 L 204,538 L 204,536 L 203,535 L 203,532 L 202,531 L 202,527 L 201,526 L 201,519 L 200,518 L 200,471 L 201,470 L 201,462 L 202,461 L 202,457 L 203,456 L 203,453 L 204,452 L 204,450 L 205,449 L 205,447 L 206,446 L 206,445 L 207,444 L 207,442 L 208,441 L 208,440 L 209,439 L 209,438 L 211,436 L 211,435 L 212,434 L 212,433 L 214,431 L 214,430 L 217,427 L 217,426 L 226,417 L 227,417 L 230,414 L 231,414 L 233,412 L 234,412 L 236,410 L 237,410 L 238,409 L 239,409 L 240,408 L 241,408 L 242,407 L 243,407 L 244,406 L 246,406 L 247,405 L 249,405 L 250,404 L 253,404 L 254,403 L 258,403 L 259,402 L 280,402 L 281,403 L 286,403 L 287,404 L 290,404 L 291,405 L 293,405 L 294,406 L 296,406 L 297,407 L 299,407 L 300,408 L 301,408 L 302,409 L 303,409 L 305,411 L 306,411 L 307,412 L 308,412 L 310,414 L 311,414 L 315,418 L 316,418 L 321,423 L 322,423 L 324,425 L 325,425 L 326,426 L 336,426 L 337,425 L 338,425 L 339,424 L 340,424 L 341,423 L 342,423 L 347,418 L 347,417 L 348,416 L 348,415 L 349,414 L 349,413 L 350,412 L 350,400 L 349,399 L 349,398 L 348,397 L 348,396 L 338,386 L 337,386 L 334,383 L 333,383 L 331,381 L 330,381 L 328,379 L 327,379 L 325,377 L 324,377 L 323,376 L 322,376 L 321,375 L 320,375 L 318,373 L 317,373 L 316,372 L 314,372 L 313,371 L 312,371 L 311,370 L 310,370 L 309,369 L 307,369 L 306,368 L 304,368 L 303,367 L 301,367 L 300,366 L 297,366 L 296,365 L 293,365 L 292,364 L 288,364 L 287,363 L 280,363 L 279,362 Z" fill="black"/>
<path d="M 150,228 L 149,229 L 147,229 L 144,232 L 144,233 L 143,234 L 143,260 L 144,261 L 144,262 L 146,264 L 147,264 L 148,265 L 874,265 L 875,264 L 876,264 L 878,262 L 878,261 L 879,260 L 879,234 L 878,233 L 878,232 L 875,229 L 872,229 L 871,228 Z" fill="black"/>
</svg>